<svg xmlns="http://www.w3.org/2000/svg" width="768" height="448" viewBox="0 0 768 448">
  <g id="Group_3" data-name="Group 3" transform="translate(0 -2338.408)">
    <rect id="Rectangle_2" data-name="Rectangle 2" width="768" height="448" transform="translate(0 2338.408)" fill="#f1f2f4"/>
    <g id="Amazon_Web_Services_Logo_4_" data-name="Amazon_Web_Services_Logo (4)" transform="translate(139.41 2416.042)">
      <path id="Path_4" data-name="Path 4" d="M130.927,106.616A48.891,48.891,0,0,0,132.7,121a86.494,86.494,0,0,0,5.171,11.634,7.029,7.029,0,0,1,1.131,3.716c0,1.616-.97,3.232-3.07,4.848l-10.18,6.787a7.747,7.747,0,0,1-4.2,1.454,7.435,7.435,0,0,1-4.848-2.262,49.991,49.991,0,0,1-5.817-7.595c-1.616-2.747-3.232-5.817-5.009-9.534q-18.906,22.3-47.506,22.3c-13.573,0-24.4-3.878-32.317-11.634S14.1,122.613,14.1,109.686C14.1,95.951,18.948,84.8,28.8,76.4S51.75,63.8,68.393,63.8a127.938,127.938,0,0,1,17.128,1.293c5.979.808,12.119,2.1,18.582,3.555v-11.8c0-12.281-2.585-20.845-7.595-25.854-5.171-5.009-13.9-7.433-26.339-7.433a73.519,73.519,0,0,0-17.451,2.1,128.753,128.753,0,0,0-17.451,5.494,46.363,46.363,0,0,1-5.656,2.1,9.911,9.911,0,0,1-2.585.485c-2.262,0-3.393-1.616-3.393-5.009V20.814c0-2.585.323-4.524,1.131-5.656a12.1,12.1,0,0,1,4.524-3.393,93.028,93.028,0,0,1,20.36-7.271,97.966,97.966,0,0,1,25.208-3.07c19.229,0,33.287,4.363,42.336,13.089,8.887,8.726,13.412,21.976,13.412,39.75v52.354Zm-65.6,24.561a52.368,52.368,0,0,0,16.643-2.909,36.007,36.007,0,0,0,15.351-10.342,25.648,25.648,0,0,0,5.494-10.342,58.01,58.01,0,0,0,1.616-14.058V86.741a134.943,134.943,0,0,0-14.866-2.747,121.758,121.758,0,0,0-15.189-.97c-10.826,0-18.744,2.1-24.076,6.463s-7.918,10.5-7.918,18.582c0,7.595,1.939,13.25,5.979,17.128C52.234,129.238,57.89,131.177,65.323,131.177Zm129.754,17.451c-2.909,0-4.848-.485-6.14-1.616-1.293-.97-2.424-3.232-3.393-6.3L147.571,15.8a28.305,28.305,0,0,1-1.454-6.463c0-2.585,1.293-4.04,3.878-4.04H165.83c3.07,0,5.171.485,6.3,1.616,1.293.97,2.262,3.232,3.232,6.3l27.147,106.97,25.208-106.97c.808-3.232,1.777-5.332,3.07-6.3A11.115,11.115,0,0,1,237.251,5.3h12.927c3.07,0,5.171.485,6.463,1.616,1.293.97,2.424,3.232,3.07,6.3l25.531,108.263L313.2,13.219c.97-3.232,2.1-5.332,3.232-6.3a10.542,10.542,0,0,1,6.3-1.616h15.028c2.585,0,4.04,1.293,4.04,4.04a16.118,16.118,0,0,1-.323,2.585,23,23,0,0,1-1.131,4.04L301.4,140.872q-1.454,4.848-3.393,6.3a10.338,10.338,0,0,1-6.14,1.616h-13.9c-3.07,0-5.171-.485-6.463-1.616s-2.424-3.232-3.07-6.463L243.391,36.487,218.507,140.549c-.808,3.232-1.777,5.332-3.07,6.463s-3.555,1.616-6.463,1.616Zm207.639,4.363a106.93,106.93,0,0,1-24.884-2.909c-8.079-1.939-14.381-4.04-18.582-6.463-2.585-1.454-4.363-3.07-5.009-4.524a11.406,11.406,0,0,1-.97-4.524V126.33c0-3.393,1.293-5.009,3.717-5.009a9.15,9.15,0,0,1,2.909.485c.97.323,2.424.97,4.04,1.616a87.893,87.893,0,0,0,17.775,5.656,97.038,97.038,0,0,0,19.229,1.939c10.18,0,18.1-1.777,23.592-5.332a17.4,17.4,0,0,0,8.4-15.351,15.736,15.736,0,0,0-4.363-11.311c-2.909-3.07-8.4-5.817-16.32-8.4l-23.43-7.271c-11.8-3.716-20.522-9.21-25.854-16.482a38.5,38.5,0,0,1-8.079-23.43A35.961,35.961,0,0,1,359.249,25.5a41.547,41.547,0,0,1,11.634-13.25,51.285,51.285,0,0,1,16.8-8.4A70.426,70.426,0,0,1,408.048,1.1a81.117,81.117,0,0,1,10.826.646c3.716.485,7.11,1.131,10.5,1.777,3.232.808,6.3,1.616,9.21,2.585a35.269,35.269,0,0,1,6.787,2.909,13.973,13.973,0,0,1,4.848,4.04,8.708,8.708,0,0,1,1.454,5.332v7.595c0,3.393-1.293,5.171-3.717,5.171a16.808,16.808,0,0,1-6.14-1.939,73.923,73.923,0,0,0-31.025-6.3c-9.21,0-16.482,1.454-21.491,4.524s-7.595,7.756-7.595,14.381a15.259,15.259,0,0,0,4.848,11.473c3.232,3.07,9.21,6.14,17.775,8.887l22.945,7.271c11.634,3.716,20.037,8.887,25.046,15.512a36.565,36.565,0,0,1,7.433,22.622,41.539,41.539,0,0,1-4.2,18.744,43.457,43.457,0,0,1-11.8,14.22,52.087,52.087,0,0,1-17.936,9.049A76.839,76.839,0,0,1,402.716,152.992Z" transform="translate(7.656 0)" fill="#90979e"/>
      <g id="Group_2" data-name="Group 2" transform="translate(1.668 182.226)">
        <path id="Path_5" data-name="Path 5" d="M440.912,158.824c-53.162,39.266-130.4,60.11-196.813,60.11-93.074,0-176.937-34.418-240.279-91.62-5.009-4.524-.485-10.665,5.494-7.11,68.513,39.75,153.023,63.827,240.441,63.827,58.979,0,123.775-12.281,183.4-37.488C442.043,142.5,449.638,152.36,440.912,158.824Z" transform="translate(-1.668 -109.527)" fill="#90979e" fill-rule="evenodd"/>
        <path id="Path_6" data-name="Path 6" d="M312.582,137.281c-6.787-8.726-44.921-4.2-62.211-2.1-5.171.646-5.979-3.878-1.293-7.271,30.378-21.329,80.309-15.189,86.126-8.079,5.817,7.271-1.616,57.2-30.055,81.117-4.363,3.716-8.564,1.777-6.625-3.07C304.987,181.879,319.369,145.845,312.582,137.281Z" transform="translate(148.8 -113.192)" fill="#90979e" fill-rule="evenodd"/>
      </g>
    </g>
  </g>
</svg>
