<svg xmlns="http://www.w3.org/2000/svg" width="138.633" height="92.422" viewBox="0 0 138.633 92.422">
  <g id="Group_2235" data-name="Group 2235" transform="translate(968.618 -1313.322)">
    <g id="Group_394" data-name="Group 394" transform="translate(-2363 749.95)">
      <rect id="Rectangle_93" data-name="Rectangle 93" width="138.633" height="92.422" transform="translate(1394.382 563.372)" fill="#6aa727"/>
      <path id="Path_1377" data-name="Path 1377" d="M1406.68,609.462l56.906-35.242,57.2,35.242-57.1,35.134Z" fill="#f3de3a" fill-rule="evenodd"/>
      <path id="Path_1378" data-name="Path 1378" d="M1463.561,633.335c13.175,0,23.92-10.463,23.92-23.29s-10.745-23.291-23.92-23.291-23.92,10.463-23.92,23.291S1450.385,633.335,1463.561,633.335Z" fill="#ebebeb" fill-rule="evenodd"/>
      <path id="Path_1379" data-name="Path 1379" d="M1463.561,586.754c12.938,0,23.478,10.006,23.9,22.5a66.929,66.929,0,0,0-45.976-8.2A23.946,23.946,0,0,1,1463.561,586.754Zm23.368,28.282a61.655,61.655,0,0,0-47.038-8.362,22.723,22.723,0,0,0-.25,3.371c0,12.86,10.711,23.29,23.92,23.29A23.8,23.8,0,0,0,1486.929,615.036Z" fill="#1d3191" fill-rule="evenodd"/>
      <path id="Path_1380" data-name="Path 1380" d="M1446,603.176a1.336,1.336,0,0,1-.276.963,1.111,1.111,0,0,1-.823.433,1.069,1.069,0,0,1-.831-.284,1.209,1.209,0,0,1-.386-.846,1.338,1.338,0,0,1,.276-.962,1.108,1.108,0,0,1,.824-.433,1.071,1.071,0,0,1,.832.283A1.209,1.209,0,0,1,1446,603.176Zm-.5.09a.971.971,0,0,0-.239-.612.6.6,0,0,0-.5-.2.557.557,0,0,0-.438.273.983.983,0,0,0-.142.623.955.955,0,0,0,.24.611.6.6,0,0,0,.5.205.552.552,0,0,0,.436-.275A.963.963,0,0,0,1445.505,603.266Zm2.933.87-.539.057a3.623,3.623,0,0,0-.408-.767.42.42,0,0,0-.38-.114l-.2.022c.033.316.072.633.116.953l-.506.053c-.024-.37-.059-.789-.107-1.253q-.07-.669-.144-1.138l.315-.034c.037,0,.113-.013.228-.03s.222-.029.32-.04c.558-.059.856.1.9.488a.652.652,0,0,1-.41.688l0,.028a.578.578,0,0,1,.352.254A6.452,6.452,0,0,1,1448.438,604.136Zm-.86-1.617c-.026-.244-.194-.35-.505-.316a1.459,1.459,0,0,0-.3.058c.032.187.065.435.1.74.066-.005.122-.01.169-.016C1447.428,602.944,1447.606,602.788,1447.578,602.519Zm3.076.2a1.372,1.372,0,0,1-.269.937,1.152,1.152,0,0,1-.9.458c-.181.013-.429.023-.746.031-.011-.373-.033-.79-.065-1.257-.031-.447-.066-.829-.1-1.142l.32-.023c.052,0,.129-.011.232-.023l.2-.02a1.228,1.228,0,0,1,.979.263A1.155,1.155,0,0,1,1450.654,602.72Zm-.492.114a.9.9,0,0,0-.247-.581.773.773,0,0,0-.641-.2,2.092,2.092,0,0,0-.214.032c.028.245.053.5.071.77.022.293.048.584.081.871a1.129,1.129,0,0,0,.239.007.689.689,0,0,0,.564-.287A.961.961,0,0,0,1450.162,602.834Zm2.5.691,0,.406-1.555.073c0-.373-.013-.793-.034-1.258-.021-.448-.047-.829-.076-1.145l1.484-.069,0,.405c-.366,0-.7,0-.995.016.02.171.035.373.046.6q.381-.016.815-.057l.019.385c-.286,0-.559.008-.819.02.012.25.028.484.048.7C1451.933,603.589,1452.29,603.563,1452.666,603.525Zm3.139.4-.532,0q0-.313-.045-1.06c-.028-.5-.043-.806-.043-.93h-.029c-.011.074-.043.211-.094.411s-.149.495-.292.884a3.425,3.425,0,0,0-.213.7l-.4,0a3.756,3.756,0,0,0-.212-.7c-.141-.389-.234-.663-.277-.819s-.078-.311-.1-.466h-.027c0,.155-.014.484-.041.991s-.037.84-.037,1h-.483q0-.054.126-1.11c.086-.7.128-1.137.128-1.3l.707,0a4.169,4.169,0,0,0,.23.911,4.159,4.159,0,0,1,.228.9h.028a3.711,3.711,0,0,1,.25-.906,3.7,3.7,0,0,0,.251-.912l.7,0c0,.256.032.709.092,1.364S1455.805,603.885,1455.805,603.924Zm5.495,0-.047.4-1.552-.124q.067-.555.123-1.253.053-.67.066-1.145l1.482.119-.052.4c-.363-.049-.694-.086-.991-.109,0,.17-.01.373-.029.6.254.021.527.035.817.045l-.03.384c-.284-.034-.555-.062-.815-.083q-.028.374-.039.7C1460.565,603.9,1460.922,603.915,1461.3,603.924Zm5.422-.672a.718.718,0,0,1-.434.584,1.441,1.441,0,0,1-.822.065,1.092,1.092,0,0,1-.119-.026q-.062.342-.141.906l-.507-.093c.078-.346.159-.759.244-1.234.078-.436.138-.814.178-1.133l.314.057c.044.009.13.022.257.041s.236.037.329.055a1.032,1.032,0,0,1,.55.261A.54.54,0,0,1,1466.722,603.252Zm-.483.016c.046-.259-.1-.42-.442-.483a1.577,1.577,0,0,0-.275-.022c-.028.233-.067.493-.119.783.031.007.065.015.1.022C1465.945,603.647,1466.189,603.548,1466.239,603.268Zm2.343,2.223a6.141,6.141,0,0,0-.172-.939.575.575,0,0,0-.25-.357l.005-.028a.647.647,0,0,0,.61-.515q.129-.565-.691-.756c-.1-.022-.2-.044-.315-.067s-.19-.038-.226-.047l-.309-.071c-.053.312-.131.686-.23,1.124-.1.455-.2.861-.3,1.221l.5.115c.06-.318.125-.63.2-.94l.2.045a.427.427,0,0,1,.322.233,3.571,3.571,0,0,1,.139.86Zm-.293-1.811q-.088.4-.657.266l-.165-.042c.068-.3.117-.544.146-.732a1.571,1.571,0,0,1,.3.044C1468.219,603.285,1468.345,603.441,1468.289,603.68Zm3.027,1.181a1.327,1.327,0,0,1-.562.828,1.105,1.105,0,0,1-.915.152,1.078,1.078,0,0,1-.7-.531,1.22,1.22,0,0,1-.1-.925,1.328,1.328,0,0,1,.56-.828,1.108,1.108,0,0,1,.916-.152,1.085,1.085,0,0,1,.7.531A1.223,1.223,0,0,1,1471.316,604.861Zm-.5-.073a.961.961,0,0,0-.038-.655.606.606,0,0,0-.41-.352.558.558,0,0,0-.5.123.975.975,0,0,0-.328.548.956.956,0,0,0,.04.655.6.6,0,0,0,.409.352.558.558,0,0,0,.5-.123A.969.969,0,0,0,1470.812,604.788Zm2.485,1.958a2.914,2.914,0,0,1-.73-.113,1.253,1.253,0,0,1-.808-.618,1.2,1.2,0,0,1-.061-.905,1.3,1.3,0,0,1,.606-.762,1.265,1.265,0,0,1,1.052-.073,2.3,2.3,0,0,1,.48.208l-.186.4a2.115,2.115,0,0,0-.47-.228.694.694,0,0,0-.621.055.9.9,0,0,0-.354.5.945.945,0,0,0,.022.651.719.719,0,0,0,.483.428,1.626,1.626,0,0,0,.238.051,3.191,3.191,0,0,1,.092-.393,2.807,2.807,0,0,0,.1-.439l.495.155c-.065.178-.127.358-.183.542C1473.407,606.337,1473.356,606.518,1473.3,606.746Zm2.22.905a6.517,6.517,0,0,0-.062-.953.573.573,0,0,0-.208-.384l.009-.027a.641.641,0,0,0,.664-.442c.128-.362-.071-.64-.6-.829-.094-.034-.2-.069-.307-.1l-.218-.071-.3-.108c-.091.3-.21.666-.358,1.089-.156.44-.3.831-.441,1.177l.479.172q.147-.462.3-.909l.192.067a.426.426,0,0,1,.294.269,3.648,3.648,0,0,1,.039.871Zm-.082-1.834q-.135.384-.684.187c-.043-.014-.1-.035-.159-.061.1-.288.178-.526.23-.71a1.628,1.628,0,0,1,.294.079C1475.41,605.417,1475.517,605.587,1475.435,605.817Zm1.981,2.157-.159.374-1.45-.572q.222-.512.476-1.163c.16-.418.291-.778.39-1.078l1.385.547-.165.369c-.334-.154-.64-.284-.916-.394-.051.164-.119.354-.2.572q.355.139.769.281l-.14.359c-.262-.115-.513-.222-.756-.318-.089.234-.169.454-.238.66C1476.721,607.735,1477.057,607.855,1477.416,607.974Zm1.946.565a.689.689,0,0,0-.01-.547,1.425,1.425,0,0,0-.336-.433,2.154,2.154,0,0,1-.289-.315.241.241,0,0,1-.02-.224c.055-.145.218-.164.485-.058a1.527,1.527,0,0,1,.466.28l.211-.358a2.653,2.653,0,0,0-.539-.277,1.086,1.086,0,0,0-.69-.08.588.588,0,0,0-.4.378.647.647,0,0,0,0,.493,1.332,1.332,0,0,0,.3.413,2.188,2.188,0,0,1,.314.362.3.3,0,0,1,.027.264.2.2,0,0,1-.189.132,1.089,1.089,0,0,1-.412-.1,1.684,1.684,0,0,1-.484-.3l-.232.351a2.4,2.4,0,0,0,.574.318Q1479.1,609.211,1479.362,608.539Zm1.853.8q-.282.664-1.226.257a2.438,2.438,0,0,1-.566-.336l.243-.343a1.7,1.7,0,0,0,.476.316,1.1,1.1,0,0,0,.408.115.193.193,0,0,0,.193-.126.3.3,0,0,0-.019-.265,2.036,2.036,0,0,0-.3-.372,1.352,1.352,0,0,1-.289-.421.651.651,0,0,1,.016-.495.585.585,0,0,1,.407-.364,1.1,1.1,0,0,1,.687.1,2.474,2.474,0,0,1,.53.295l-.222.35a1.538,1.538,0,0,0-.456-.3c-.265-.114-.427-.1-.488.044a.241.241,0,0,0,.015.224,1.992,1.992,0,0,0,.279.324,1.432,1.432,0,0,1,.321.444A.68.68,0,0,1,1481.215,609.344Zm2.6.723a1.21,1.21,0,0,0,.113-.924,1.076,1.076,0,0,0-.56-.681,1.107,1.107,0,0,0-.925-.069,1.317,1.317,0,0,0-.737.673,1.215,1.215,0,0,0-.112.925,1.083,1.083,0,0,0,.56.681,1.111,1.111,0,0,0,.925.069A1.314,1.314,0,0,0,1483.815,610.067Zm-.471-.188a.968.968,0,0,1-.446.454.555.555,0,0,1-.514,0,.612.612,0,0,1-.317-.44,1.089,1.089,0,0,1,.56-1.1.556.556,0,0,1,.513,0,.606.606,0,0,1,.318.439A.964.964,0,0,1,1483.344,609.879Z" fill="#5f9724" fill-rule="evenodd"/>
      <path id="Path_1381" data-name="Path 1381" d="M1478.258,621.488l.266-1.147-.943-.637,1.208-.107.367-1,.424,1.02,1.11.053-.871.7.326,1.052-.963-.6ZM1440.786,610.7l.266-1.148-.944-.635,1.21-.108.365-1,.425,1.02,1.109.054-.87.7.326,1.053-.964-.6Zm1.6,7.48.152-.657-.54-.365.693-.062.208-.572.244.583.636.032-.5.4.185.6-.551-.343Zm2.09-1.31.265-1.148-.943-.636,1.21-.107.364-1,.426,1.02,1.108.053-.87.7.326,1.053-.963-.6Zm3.163-2.378.118-.508-.417-.282.534-.047.163-.442.187.451.492.023-.386.309.144.467-.426-.264Zm2.74,3.927.153-.656-.54-.365.692-.061.21-.573.242.584.635.031-.5.4.187.6-.552-.341Zm-.764,2.551.152-.657-.541-.365.693-.061.211-.573.243.584.635.03-.5.4.187.6-.551-.342Zm3.31,2.633.266-1.147-.944-.637,1.21-.107.365-1,.425,1.019,1.11.053-.871.7.326,1.053-.964-.6Zm2.551-9.524.266-1.145-.943-.638,1.209-.107.365-1,.425,1.019,1.109.054-.87.7.326,1.052-.964-.6Zm5.5,4.7.266-1.146-.943-.637,1.208-.107.365-1,.426,1.018,1.109.054-.87.7.326,1.052-.963-.6Zm2.471-2.9.266-1.147-.943-.637,1.209-.107.365-1,.425,1.019,1.109.053-.87.7.326,1.053-.963-.6Zm.554,4.286.118-.508-.418-.282.535-.048.162-.442.188.451.49.024-.384.309.144.465-.427-.264Zm.355,2.189.151-.657-.54-.365.692-.061.21-.573.244.584.635.031-.5.4.186.6-.552-.342Zm-.327,5.213.152-.657-.54-.365.693-.062.209-.572.244.584.636.031-.5.4.186.6-.551-.342Zm2.713-8.657.266-1.146-.943-.638,1.208-.107.366-1,.426,1.018,1.108.054-.869.7.325,1.053-.963-.6Zm4.115-8.323.152-.657-.54-.365.693-.061.209-.573.243.583.636.032-.5.4.186.6-.552-.341Zm-.734,13.937.117-.507-.417-.282.536-.048.161-.443.188.452.491.024-.385.309.144.465-.426-.264Zm1.235,2.092.118-.508-.418-.282.535-.048.163-.442.188.452.491.023-.386.309.144.466-.426-.265Zm1.515-1.328.117-.508-.417-.281.534-.048.163-.442.187.451.492.024-.386.308.144.467-.426-.264Zm.357-22.9.266-1.147-.943-.637,1.209-.107.365-1,.424,1.019,1.111.055-.871.7.326,1.054-.963-.6Zm1.716,23.86.107-.463-.381-.258.489-.043.147-.4.172.411.448.022-.351.281.13.425-.389-.24Zm1.319,1.112.09-.388-.319-.216.409-.037.124-.338.143.345.376.018-.294.237.109.356-.325-.2Zm.139-2.519.09-.388-.319-.216.409-.036.124-.338.144.345.376.018-.3.236.111.356-.328-.2Zm1.778-.173.089-.39-.318-.215.409-.036.123-.338.144.344.376.019-.294.236.111.356-.327-.2Zm1.281-1.446.118-.507-.417-.283.534-.046.162-.444.188.452.492.024-.386.309.144.465-.426-.264Zm.917,1.394.118-.507-.418-.282.534-.048.163-.442.187.451.492.024-.385.309.143.466-.425-.264Zm1.955-4.552.152-.657-.54-.366.693-.062.209-.572.243.584.637.032-.5.4.187.6-.553-.342Z" fill="#ebebeb" fill-rule="evenodd"/>
    </g>
  </g>
</svg>
