<svg xmlns="http://www.w3.org/2000/svg" width="138.633" height="92.422" viewBox="0 0 138.633 92.422">
  <g id="Group_2237" data-name="Group 2237" transform="translate(936.055 -1616.726)">
    <g id="Group_423" data-name="Group 423" transform="translate(-3643.624 1053.354)">
      <rect id="Rectangle_105" data-name="Rectangle 105" width="52.746" height="92.423" transform="translate(2750.846 563.372)" fill="#ededed"/>
      <rect id="Rectangle_106" data-name="Rectangle 106" width="43.277" height="92.423" transform="translate(2707.569 563.372)" fill="#d00100"/>
      <rect id="Rectangle_107" data-name="Rectangle 107" width="42.61" height="92.423" transform="translate(2803.592 563.372)" fill="#cc011d"/>
      <path id="Path_1457" data-name="Path 1457" d="M2776.025,636.21c0-.272.026-.637.066-1.457.152-3.118.486-9.26.332-11.262-.036-.451-.516-.373-.712-.362-1.668.1-7.542.931-10.7,1.336.673-1.723,1.368-3.368,1.141-4.207-.389-1.429-5.526-5.79-11.217-10.658,1.278-.44,2.658-.8,2.842-1.692.283-1.22-.385-3.605-1.906-8.43,3.652,1.195,5.668,1.824,6.843,1.5.732-.29.9-1.514,1.123-3.791,2.02,2.294,5.027,7.2,6.06,6.879,1.577-.608-.715-9.659-1.5-14.5,1.723,1.185,2.848,2.084,3.745,2.071,1.243-.058,2.485-3.279,4.745-8.8,2.261,5.521,3.5,8.742,4.745,8.8.9.013,2.024-.886,3.746-2.071-.783,4.837-3.076,13.888-1.5,14.5,1.033.323,4.04-4.585,6.06-6.879.219,2.277.391,3.5,1.123,3.791,1.175.327,3.191-.3,6.843-1.5-1.52,4.825-2.19,7.21-1.906,8.43.184.894,1.564,1.252,2.842,1.692-5.691,4.868-10.829,9.229-11.217,10.658-.227.839.468,2.484,1.14,4.207-3.161-.405-9.035-1.239-10.7-1.336-.2-.011-.676-.089-.711.362-.156,2,.178,8.144.331,11.262.04.82.063,1.185.066,1.457A3.146,3.146,0,0,1,2776.025,636.21Z" fill="#d00100" fill-rule="evenodd"/>
    </g>
  </g>
</svg>
