<?xml version="1.0" encoding="UTF-8"?><svg id="b" xmlns="http://www.w3.org/2000/svg" width="33.96" height="40.25" viewBox="0 0 33.96 40.25"><g id="c"><path d="m.43,17.06v-7.3c0-2.3.94-4.39,2.46-5.9h0c1.42-1.42,3.35-2.34,5.48-2.45V.43c0-.23.19-.43.43-.43h1.43c.24,0,.43.19.43.43v3.36c0,.24-.19.43-.43.43h-1.43c-.24,0-.43-.19-.43-.43v-.95c-1.74.11-3.31.86-4.47,2.02-1.26,1.26-2.04,2.99-2.04,4.9v7.3c.26.21.43.53.43.89v8.19c0,1.79.73,3.42,1.91,4.6h0c1.18,1.18,2.8,1.91,4.6,1.91h5.3c.23,0,.47.05.68.19l6.26,4.15v-3.2c0-.63.51-1.14,1.14-1.14h3c1.79,0,3.42-.73,4.6-1.91h0c1.18-1.18,1.91-2.81,1.91-4.6v-8.19c0-.36.17-.68.43-.89v-7.3c0-1.91-.78-3.64-2.04-4.9h0c-1.16-1.16-2.73-1.92-4.47-2.02v.95c0,.24-.19.43-.43.43h-1.43c-.24,0-.43-.19-.43-.43V.43c0-.23.19-.43.43-.43h1.43c.24,0,.43.19.43.43v.98c2.13.11,4.06,1.03,5.48,2.45h0c1.52,1.51,2.46,3.61,2.46,5.91v7.3c.26.21.43.53.43.89v8.19c0,2.41-.99,4.61-2.58,6.21h0s0,0,0,0h0c-1.6,1.59-3.79,2.58-6.2,2.58h-1.85v4.18c0,.63-.51,1.14-1.14,1.14-.26,0-.5-.09-.69-.23l-7.67-5.09h-5.02c-2.41,0-4.61-.99-6.21-2.58h0s0,0,0,0h0c-1.59-1.6-2.58-3.79-2.58-6.21v-8.19c0-.36.17-.68.43-.89H.43Z" fill="#1f74d5" stroke-width="0"/><path d="m10.67,16.69c.99,0,1.8.81,1.8,1.8s-.81,1.8-1.8,1.8-1.8-.81-1.8-1.8.81-1.8,1.8-1.8h0Zm12.63,0c.99,0,1.8.81,1.8,1.8s-.81,1.8-1.8,1.8-1.8-.81-1.8-1.8.81-1.8,1.8-1.8h0Zm-6.32,0c.99,0,1.8.81,1.8,1.8s-.81,1.8-1.8,1.8-1.8-.81-1.8-1.8.81-1.8,1.8-1.8h0Z" fill="#f90" fill-rule="evenodd" stroke-width="0"/></g></svg>