<?xml version="1.0" encoding="UTF-8"?><svg id="b" xmlns="http://www.w3.org/2000/svg" width="69.51" height="121.36" viewBox="0 0 69.51 121.36"><g id="c"><path d="m58.53,29.8c-7.34-7.6-16.48-16.28-23.82-23.89C16.94-12.41-11.27,16.21,4.74,32.74l20.11,22.81c2.01-19.01,24.64-29.84,33.67-25.75ZM8.3,9.61c.83,0,1.47.65,1.47,1.44s-.65,1.43-1.47,1.43-1.44-.64-1.44-1.43.65-1.44,1.44-1.44Zm9.86,33.61l-10.69-12.12c-4.35-4.52-5.25-9.97-3.96-15.07,1.01-3.69,4.32-3.23,3.78.86-.5,4.09.61,8.29,4.07,11.84l10.11,11.44c4.6,5.27-.04,6.74-3.31,3.05Z" fill="#39ee7e" fill-rule="evenodd" stroke-width="0"/><path d="m47.27,69.83c-6.48-4.38-13.13-6.67-17.41-6.35,3.85.5,8.85,2.55,13.78,5.88,8.6,5.77,13.67,13.27,11.33,16.68-1.94,2.9-8.6,1.97-15.79-1.87,8.89,5.63,17.77,7.35,20.22,3.73,2.56-3.77-2.88-11.84-12.12-18.08Z" fill="#39ee7e" fill-rule="evenodd" stroke-width="0"/><path d="m43.24,52c-4.89,3.34-9.93,5.38-13.74,5.88,4.28.32,10.9-1.97,17.41-6.35,9.25-6.24,14.68-14.31,12.12-18.08-2.45-3.62-11.33-1.9-20.22,3.73,7.2-3.87,13.85-4.77,15.79-1.86,2.34,3.41-2.74,10.9-11.37,16.68Z" fill="#037faa" fill-rule="evenodd" stroke-width="0"/><path d="m25.21,65.81l-20.11,22.81c-16.01,16.53,12.23,45.15,29.97,26.83,7.37-7.6,16.48-16.28,23.85-23.89-9.07,4.09-31.69-6.74-33.71-25.75Zm-16.51,45.94c-.83,0-1.44-.64-1.44-1.43s.61-1.43,1.44-1.43,1.44.65,1.44,1.43-.65,1.43-1.44,1.43Zm13.13-30.56l-10.11,11.44c-3.45,3.55-4.57,7.75-4.03,11.84.5,4.09-2.81,4.55-3.78.83-1.33-5.06-.43-10.51,3.92-15.03l10.68-12.12c3.27-3.69,7.92-2.22,3.31,3.05Z" fill="#037faa" fill-rule="evenodd" stroke-width="0"/><path d="m68.31,65.45l-12.83,7.4-13.03,7.52c-2.39,1.06-3.19-.44-3.33-1.92v-29.8c.03-2.51,1.75-2.97,3.57-2.06l12.78,7.38,12.83,7.4c1.56.86,1.64,2.89,0,4.07h0Zm-6.1-.68c1.08-.78,1.03-2.11,0-2.68l-8.45-4.88-8.42-4.86c-1.2-.6-2.33-.3-2.35,1.36v19.64c.09.98.62,1.96,2.19,1.26l8.58-4.96,8.45-4.88Z" fill="#f90" fill-rule="evenodd" stroke-width="0"/></g></svg>