<svg xmlns="http://www.w3.org/2000/svg" width="1184.374" height="878.675" viewBox="0 0 1184.374 878.675">
  <g id="image" transform="translate(-100 -467.176)">
    <path id="Path_144" data-name="Path 144" d="M1074.212,284.621H310.147c-116.044,0-210.117,94.074-210.117,210.117V953.177c0,116.046,94.074,210.12,210.117,210.12h764.065c116.046,0,210.117-94.074,210.117-210.12V494.738C1284.329,378.695,1190.258,284.621,1074.212,284.621Z" transform="translate(0.045 182.555)" fill="#93cbff"/>
    <path id="Path_145" data-name="Path 145" d="M1040.029,464.315c-68.995-53.181-161.6-58.453-239.686-11.538l-122.1,86.033-96.731-74.495c-68.766-53.1-161.447-58.53-236.1-13.907a57.453,57.453,0,0,0-7.947,5.655L100,659.838v91.918c0,115.907,94.21,210.117,210.117,210.117h764.065c115.91,0,210.117-94.21,210.117-210.117V666.792L1039.952,464.238Z" transform="translate(0 383.896)" fill="#8bc727"/>
  </g>
</svg>
