<svg xmlns="http://www.w3.org/2000/svg" width="138.633" height="92.422" viewBox="0 0 138.633 92.422">
  <g id="Group_2230" data-name="Group 2230" transform="translate(1167.422 -1140.462)">
    <g id="Group_1721" data-name="Group 1721" transform="translate(-2937 -324.526)">
      <rect id="Rectangle_320" data-name="Rectangle 320" width="138.633" height="92.422" transform="translate(1769.578 1464.989)" fill="#1f36a0"/>
      <g id="Group_1719" data-name="Group 1719">
        <path id="Path_5313" data-name="Path 5313" d="M1890.566,1498.679l.852,2.535,2.773-.005-2.246,1.562.862,2.532-2.24-1.57-2.24,1.57.862-2.532-2.246-1.562,2.773.005Z" fill="#d00100" fill-rule="evenodd"/>
        <path id="Path_5314" data-name="Path 5314" d="M1893.533,1506.264l-2.967-2.079-2.968,2.079,1.142-3.354-2.976-2.069,3.673.007,1.129-3.358,1.128,3.358,3.673-.007-2.976,2.069Zm-2.967-2.983,1.512,1.06-.582-1.71,1.517-1.055-1.872,0-.575-1.712-.576,1.712-1.872,0,1.517,1.055-.582,1.71Z" fill="#ededed"/>
        <path id="Path_5315" data-name="Path 5315" d="M1856.04,1502.464l1.077,3.206,3.507-.007-2.841,1.975,1.09,3.2-2.833-1.986-2.833,1.986,1.09-3.2-2.841-1.975,3.507.007Z" fill="#d00100" fill-rule="evenodd"/>
        <path id="Path_5316" data-name="Path 5316" d="M1859.6,1511.8l-3.56-2.495-3.561,2.495,1.37-4.024-3.57-2.482,4.407.008,1.354-4.03,1.353,4.03,4.407-.008-3.57,2.482Zm-3.56-3.4,2.1,1.476-.81-2.381,2.112-1.468-2.607.005-.8-2.383-.8,2.383-2.607-.005,2.112,1.468-.81,2.381Z" fill="#ededed"/>
        <path id="Path_5317" data-name="Path 5317" d="M1874.812,1484.169l1.119,3.332,3.644-.007-2.952,2.052,1.133,3.328-2.944-2.063-2.944,2.063,1.133-3.328-2.952-2.052,3.644.007Z" fill="#d00100" fill-rule="evenodd"/>
        <path id="Path_5318" data-name="Path 5318" d="M1878.483,1493.836l-3.671-2.574-3.671,2.573,1.412-4.149-3.681-2.559,4.544.008,1.4-4.155,1.4,4.155,4.544-.008-3.681,2.559Zm-7.257-5.975,2.223,1.546-.853,2.505,2.216-1.554,2.217,1.554-.853-2.505,2.222-1.546-2.743.005-.843-2.508-.843,2.508Z" fill="#ededed"/>
        <path id="Path_5319" data-name="Path 5319" d="M1874.177,1527.864l1.566,4.662,5.1-.009-4.13,2.871,1.585,4.656-4.119-2.887-4.119,2.887,1.585-4.656-4.13-2.871,5.1.009Z" fill="#d00100" fill-rule="evenodd"/>
        <path id="Path_5320" data-name="Path 5320" d="M1879.023,1541.006l-4.846-3.4-4.846,3.4,1.864-5.478-4.859-3.379,6,.011,1.843-5.485,1.843,5.485,6-.011-4.86,3.379Zm-10.334-8.122,3.4,2.364-1.306,3.834,3.392-2.377,3.391,2.377-1.305-3.834,3.4-2.364-4.2.008-1.289-3.839-1.29,3.839Z" fill="#ededed"/>
      </g>
      <g id="Group_1720" data-name="Group 1720">
        <path id="Path_5321" data-name="Path 5321" d="M1798.353,1464.989h11.784l0,14.976,21.022-14.976h7.745v5.5l-15.139,11.017H1838.9l0,13H1823.5l15.394,11.408v5.281h-7.78l-20.985-15.058,0,15.058h-11.784l0-15.063-20.989,15.063h-7.78v-5.281l15.39-11.408h-15.385l0-13h15.127l-15.131-11.017v-5.5h7.744l21.022,14.981Z" fill="#ededed" fill-rule="evenodd"/>
        <path id="Path_5322" data-name="Path 5322" d="M1838.9,1483.971l0,8.074h-30.809l0,19.154H1800.4l0-19.154h-30.809l0-8.074h30.809l0-18.982h7.691l0,18.982Z" fill="#d00100" fill-rule="evenodd"/>
        <path id="Path_5323" data-name="Path 5323" d="M1769.582,1468.429l18.053,13.037,5.086-.045-23.139-16.433Zm46.2,12.975-5.131-.013,23.109-16.4h5.143Zm23.121,26.245-18.021-13.184-5.087.045,23.108,16.58Zm-46.2-13.037,5.132.013-23.1,16.574h-5.143Z" fill="#d00100" fill-rule="evenodd"/>
      </g>
    </g>
  </g>
</svg>
