<svg xmlns="http://www.w3.org/2000/svg" width="39.772" height="37.173" viewBox="0 0 39.772 37.173">
  <path id="Path_3" data-name="Path 3" d="M347.476,384.113c2.755.15,2.675,1,.375,2.1-6.2,2.958-11.751,9.06-16.448,15.453,4.988,7.1,11.057,14.212,17.905,17.483,2.3,1.1,2.378,1.947-.375,2.1-7.185.391-15.856-4.929-22.921-11.665-.748,1.164-1.462,2.3-2.139,3.378-8.43,13.449-15.9,8.83-11.141-1.564A46.2,46.2,0,0,1,319,401.756a42.9,42.9,0,0,1-4.814-7.792c-4.76-10.394,2.712-15.013,11.141-1.564q.518.827,1.065,1.691c6.694-5.914,14.509-10.337,21.083-9.978Z" transform="translate(-311.245 -384.092)" fill="#d51d01" fill-rule="evenodd"/>
</svg>
