<svg xmlns="http://www.w3.org/2000/svg" width="362.801" height="479.556" viewBox="0 0 362.801 479.556">
  <g id="Group_3" data-name="Group 3" transform="translate(-483.351 -1181.771)">
    <path id="Path_15" data-name="Path 15" d="M208.444,278.586H389.057c4.807,0,8.739,4.308,8.739,9.573v.4c0,5.265-3.932,9.573-8.739,9.573H208.444c-4.807,0-8.739-4.308-8.739-9.573v-.4c0-5.265,3.932-9.573,8.739-9.573Zm0,78.631H389.057c4.807,0,8.739,4.308,8.739,9.573v.4c0,5.265-3.932,9.573-8.739,9.573H208.444c-4.807,0-8.739-4.308-8.739-9.573v-.4c0-5.265,3.932-9.573,8.739-9.573Zm0,78.63H389.057c4.807,0,8.739,4.308,8.739,9.574v.4c0,5.265-3.932,9.573-8.739,9.573H208.444c-4.807,0-8.739-4.308-8.739-9.573v-.4c0-5.266,3.932-9.574,8.739-9.574ZM161.331,137.283H375.55a16.258,16.258,0,0,1,12.743,6.041L473.475,242.7a19.451,19.451,0,0,1,4.737,12.994l1.655,312.431c.07,13.231-4.193,24.644-12.708,34.026s-18.911,14.118-30.988,14.118H161.331c-24.067,0-43.7-21.5-43.7-47.866V185.15c0-26.364,19.63-47.867,43.7-47.867ZM220.99,526.532a1.336,1.336,0,0,1,.02-.292.777.777,0,0,1,.085-.229.316.316,0,0,1,.208-.146.729.729,0,0,1,.332-.062c1.042-.063,2.189-.1,3.46-.146,1.25-.042,2.6-.084,4.022-.1s2.918-.041,4.461-.062,3.1-.021,4.708-.021a35.467,35.467,0,0,1,11.588,1.729,21.638,21.638,0,0,1,8,4.752,19.129,19.129,0,0,1,4.647,7.107,25.237,25.237,0,0,1,1.5,8.814,25.729,25.729,0,0,1-2.084,10.608,19.561,19.561,0,0,1-5.668,7.314,24.067,24.067,0,0,1-8.42,4.231,37.18,37.18,0,0,1-10.315,1.356c-.625,0-1.126,0-1.584-.021-.458,0-.833-.022-1.209-.042s-.708-.021-1.063-.041-.73-.022-1.167-.022v24.925a1.3,1.3,0,0,1-.042.333.467.467,0,0,1-.353.354,1.443,1.443,0,0,1-.334.042H221.7a1.417,1.417,0,0,1-.332-.042.5.5,0,0,1-.23-.125.513.513,0,0,1-.126-.229,1.686,1.686,0,0,1-.041-.333v-52.2c.021-.041.021-17.443.021-17.443ZM232.514,560.9l1.084.062c.355.021.729.021,1.125.021s.834,0,1.333.021h1.689a23.45,23.45,0,0,0,5.481-.584,13.084,13.084,0,0,0,4.667-2.043,9.839,9.839,0,0,0,3.251-3.959,15.085,15.085,0,0,0,1.231-6.335,14.689,14.689,0,0,0-.918-5.4,10,10,0,0,0-2.668-3.876,11.657,11.657,0,0,0-4.292-2.335,19.729,19.729,0,0,0-5.792-.771c-.647,0-1.273,0-1.878.021s-1.187.021-1.728.042-1.042.042-1.48.063-.813.062-1.1.083V560.9Zm43.034-34.261a1.461,1.461,0,0,1,.021-.333.84.84,0,0,1,.105-.25.657.657,0,0,1,.228-.168,1.634,1.634,0,0,1,.4-.1c.625-.02,1.521-.062,2.624-.1,1.126-.042,2.46-.063,3.94-.1s3.125-.062,4.856-.083c1.709-.021,3.522-.042,5.335-.042a38.058,38.058,0,0,1,14.212,2.5,26.634,26.634,0,0,1,10.129,7.044,29.992,29.992,0,0,1,6.085,10.9,45.672,45.672,0,0,1,2.021,14.048,46.651,46.651,0,0,1-3.147,17.837,30.744,30.744,0,0,1-8,11.442,30.183,30.183,0,0,1-10.712,6.084,35.99,35.99,0,0,1-11.252,1.792c-1.355,0-2.876,0-4.417-.019-1.543,0-3.148-.021-4.649-.042-1.52-.02-2.938-.041-4.168-.062s-2.27-.063-2.98-.084a.664.664,0,0,1-.292-.063.519.519,0,0,1-.207-.166,1.021,1.021,0,0,1-.126-.271,1.819,1.819,0,0,1-.042-.355V543.954l.042-17.318Zm11.649,60c.46.021.9.063,1.335.084l1.312.062c.437.021.876.042,1.356.042.458,0,.938.021,1.457.021a20.727,20.727,0,0,0,8.295-1.6,17.7,17.7,0,0,0,6.605-4.876,23.022,23.022,0,0,0,4.378-8.294,41.118,41.118,0,0,0,1.625-11.816,36.012,36.012,0,0,0-1.542-11.316,19.874,19.874,0,0,0-4.376-7.607,17.041,17.041,0,0,0-6.544-4.293,23.059,23.059,0,0,0-8.044-1.334c-.563,0-1.084,0-1.6.021s-1,.021-1.48.042l-1.395.063c-.459.021-.917.062-1.377.083v50.723Zm62.769,9.4a1.928,1.928,0,0,1-.041.4.546.546,0,0,1-.125.271.831.831,0,0,1-.23.145,1.413,1.413,0,0,1-.332.042h-10.17a1.431,1.431,0,0,1-.334-.042.527.527,0,0,1-.229-.145.48.48,0,0,1-.124-.271,2.008,2.008,0,0,1-.043-.4v-69.6a1.39,1.39,0,0,1,.043-.333.5.5,0,0,1,.124-.229.5.5,0,0,1,.229-.125,1.44,1.44,0,0,1,.334-.041h35.51a1.9,1.9,0,0,1,.4.041.41.41,0,0,1,.229.125.869.869,0,0,1,.146.229,1.225,1.225,0,0,1,.084.333l.271,2.252.27,2.25.271,2.25.272,2.251a1.242,1.242,0,0,1,0,.4.574.574,0,0,1-.146.271.759.759,0,0,1-.291.145,2.349,2.349,0,0,1-.419.042H349.925v20.256h23.091a1.489,1.489,0,0,1,.334.021.576.576,0,0,1,.228.1.407.407,0,0,1,.126.229,1.921,1.921,0,0,1,.041.4v9a1.911,1.911,0,0,1-.041.4.407.407,0,0,1-.126.229.455.455,0,0,1-.228.1,1.682,1.682,0,0,1-.334.021h-23.07V588.8l.02,7.231ZM129.989,505.006h337.17l-1.3-245.585a5.263,5.263,0,0,0-1.388-3.809l-2.075-2.42H375.55V154.463H161.331c-17.247,0-31.342,15.439-31.342,34.333v316.21Z" transform="translate(366 1044.772)" fill="#ff2116" stroke="#ff2116" stroke-miterlimit="22.926" stroke-width="0.567" fill-rule="evenodd"/>
    <path id="Path_16" data-name="Path 16" d="M232.514,560.9V535.91c.292-.021.666-.062,1.1-.083s.938-.042,1.48-.063,1.124-.021,1.728-.042,1.231-.021,1.878-.021a19.729,19.729,0,0,1,5.792.771,11.657,11.657,0,0,1,4.292,2.335,10,10,0,0,1,2.668,3.876,14.689,14.689,0,0,1,.918,5.4,15.085,15.085,0,0,1-1.231,6.335,9.839,9.839,0,0,1-3.251,3.959,13.084,13.084,0,0,1-4.667,2.043,23.45,23.45,0,0,1-5.481.584h-1.689c-.5-.021-.936-.021-1.333-.021s-.77,0-1.125-.021l-1.084-.062Zm29.426-2.418a25.729,25.729,0,0,0,2.084-10.608,25.237,25.237,0,0,0-1.5-8.814,19.129,19.129,0,0,0-4.647-7.107,21.638,21.638,0,0,0-8-4.752,35.467,35.467,0,0,0-11.588-1.729c-1.6,0-3.166,0-4.708.021s-3.044.041-4.461.062-2.772.063-4.022.1c-1.271.042-2.418.083-3.46.146a.729.729,0,0,0-.332.062.316.316,0,0,0-.208.146.777.777,0,0,0-.085.229,1.336,1.336,0,0,0-.02.292s0,17.4-.021,17.443v52.2a1.686,1.686,0,0,0,.041.333.513.513,0,0,0,.126.229.5.5,0,0,0,.23.125,1.417,1.417,0,0,0,.332.042h10.087a1.443,1.443,0,0,0,.334-.042.467.467,0,0,0,.353-.354,1.3,1.3,0,0,0,.042-.333V571.254c.437,0,.813,0,1.167.022s.688.02,1.063.041.751.042,1.209.042c.458.021.959.021,1.584.021a37.18,37.18,0,0,0,10.315-1.356,24.067,24.067,0,0,0,8.42-4.231,19.561,19.561,0,0,0,5.668-7.314Zm76.4-14.65v52.2a2.008,2.008,0,0,0,.043.4.48.48,0,0,0,.124.271.527.527,0,0,0,.229.145,1.431,1.431,0,0,0,.334.042h10.17a1.413,1.413,0,0,0,.332-.042.831.831,0,0,0,.23-.145.546.546,0,0,0,.125-.271,1.928,1.928,0,0,0,.041-.4l-.02-7.231V567.044h23.07a1.682,1.682,0,0,0,.334-.021.455.455,0,0,0,.228-.1.407.407,0,0,0,.126-.229,1.911,1.911,0,0,0,.041-.4v-9a1.921,1.921,0,0,0-.041-.4.407.407,0,0,0-.126-.229.576.576,0,0,0-.228-.1,1.489,1.489,0,0,0-.334-.021H349.925V536.285h25.736a2.349,2.349,0,0,0,.419-.042.759.759,0,0,0,.291-.145.574.574,0,0,0,.146-.271,1.242,1.242,0,0,0,0-.4l-.272-2.251-.271-2.25-.27-2.25-.271-2.252a1.225,1.225,0,0,0-.084-.333.869.869,0,0,0-.146-.229.41.41,0,0,0-.229-.125,1.9,1.9,0,0,0-.4-.041h-35.51a1.44,1.44,0,0,0-.334.041.5.5,0,0,0-.229.125.5.5,0,0,0-.124.229,1.39,1.39,0,0,0-.043.333v17.4ZM325.5,559.939a45.672,45.672,0,0,0-2.021-14.048,29.992,29.992,0,0,0-6.085-10.9,26.634,26.634,0,0,0-10.129-7.044,38.058,38.058,0,0,0-14.212-2.5c-1.813,0-3.626.021-5.335.042-1.731.021-3.376.041-4.856.083s-2.814.063-3.94.1c-1.1.041-2,.083-2.624.1a1.634,1.634,0,0,0-.4.1.657.657,0,0,0-.228.168.84.84,0,0,0-.105.25,1.461,1.461,0,0,0-.021.333l-.042,17.318v52.078a1.819,1.819,0,0,0,.042.355,1.021,1.021,0,0,0,.126.271.519.519,0,0,0,.207.166.664.664,0,0,0,.292.063c.71.021,1.751.062,2.98.084s2.648.042,4.168.062c1.5.021,3.106.042,4.649.042,1.541.019,3.062.019,4.417.019a35.99,35.99,0,0,0,11.252-1.792,30.183,30.183,0,0,0,10.712-6.084,30.744,30.744,0,0,0,8-11.442,46.651,46.651,0,0,0,3.147-17.837Zm-13.483-11a36.012,36.012,0,0,1,1.542,11.316,41.118,41.118,0,0,1-1.625,11.816,23.022,23.022,0,0,1-4.378,8.294,17.7,17.7,0,0,1-6.605,4.876,20.727,20.727,0,0,1-8.295,1.6c-.519,0-1-.021-1.457-.021-.48,0-.919-.021-1.356-.042l-1.312-.062c-.438-.021-.875-.063-1.335-.084V535.91c.46-.021.918-.062,1.377-.083l1.395-.063c.48-.021.96-.021,1.48-.042s1.042-.021,1.6-.021a23.059,23.059,0,0,1,8.044,1.334,17.041,17.041,0,0,1,6.544,4.293,19.874,19.874,0,0,1,4.376,7.607Zm155.141-43.929-1.3-245.585a5.263,5.263,0,0,0-1.388-3.809l-2.075-2.42H375.55V154.463H161.331c-17.247,0-31.342,15.439-31.342,34.333v316.21Zm-78.1-206.875H208.444c-4.807,0-8.739-4.308-8.739-9.573v-.4c0-5.265,3.932-9.573,8.739-9.573H389.057c4.807,0,8.739,4.308,8.739,9.573v.4c0,5.265-3.932,9.573-8.739,9.573ZM208.444,357.217H389.057c4.807,0,8.739,4.308,8.739,9.573v.4c0,5.265-3.932,9.573-8.739,9.573H208.444c-4.807,0-8.739-4.308-8.739-9.573v-.4c0-5.265,3.932-9.573,8.739-9.573Zm0,78.63H389.057c4.807,0,8.739,4.308,8.739,9.574v.4c0,5.265-3.932,9.573-8.739,9.573H208.444c-4.807,0-8.739-4.308-8.739-9.573v-.4c0-5.266,3.932-9.574,8.739-9.574Z" transform="translate(366 1044.772)" fill="#fff" stroke="red" stroke-miterlimit="22.926" stroke-width="0.567" fill-rule="evenodd"/>
  </g>
</svg>
