<svg xmlns="http://www.w3.org/2000/svg" width="298.431" height="327.588" viewBox="0 0 298.431 327.588">
  <g id="Group_5" data-name="Group 5" transform="translate(-554.825 -3341.205)">
    <g id="Group_1" data-name="Group 1" transform="translate(-899 2969.816)">
      <path id="Path_1" data-name="Path 1" d="M1752.035,518.973c-.009-.047-.019-.094-.029-.142-1.6-7.573-10.774-11.381-18.411-10.13-15.05,2.467-26.19,19.768-42.332,17.286-6.7-1.03-13.936-7.027-12.631-14.445,1.16-6.615,7.238-11.295,8.88-17.806,3.986-15.8-7.952-18.376-16.221-19.583-8.931-1.3-26.448,3.768-24.515-11.879.7-5.638,4.96-9.985,8.186-14.662,16.737-24.262,27.59-27.8,39.5-41.9,5.95-7.042,9.264-19.835-.524-27.351-7.3-5.605-17.995.339-23.523,7.694-16.709,22.228-15.353,74.747-56.35,65.622-14.876-3.311-30.508-22.106-45.61-6.64-6.969,7.135-8.156,20.087-17.536,23.469-7.077,2.546-17.3-.613-22.733-5.81-7.635-7.308-12.169-19.774-19.447-27.436-25.813-27.179-46.49-13.451-52.051-5.4-7.325,10.6-2.069,39.775,33.207,41.132,21.493.827,29.92,4.624,35.863,10.1,6.488,5.983,2.219,17.005-3.895,23.365s-14.227,12.2-15.248,20.961c-1.737,14.955,18.265,24.983,18.48,40.039.15,10.644-9.517,20.6-19.372,24.622-12.447,5.087-29.232,5.55-35.478,19.284-3.28,7.213-.818,16.517,6,20.549A17.75,17.75,0,0,0,1492,631.386c17.017-5.817,14.321-27.041,33.617-40.25,3.867-2.647,9.972-5.473,14.613-6.118,4.405-.613,8.443,2.925,10.331,6.952s2.276,8.573,3.5,12.848,3.686,8.648,7.88,10.129c3.68,1.3,7.755.052,11.3-1.577s7.033-3.674,10.918-4.038c8.879-.832,10.344,6.959,8.935,13.848q-5.554,27.085-11.1,54.174c-1.579,7.713-2.608,17.124,3.46,22.136,11.251,9.285,20.965-5.192,21.111-15.342.28-19.512-4.069-27.738-5.576-46.129-.587-7.163-2.357-28.487,11.242-29.155,5.06-.248,8.818,4.84,10.065,9.749s1.034,10.21,3.112,14.83,7.924,8.243,12.188,5.507c3.485-2.237,3.772-7.407,2.134-11.21s-4.674-6.809-6.859-10.327c-6.42-10.337,3.843-20.875,14.323-14.41,7.464,4.6,9.275,14.069,11.472,21.866,1.988,7.054,6.421,16.977,15.258,16.754,10.855-.274,10.4-14.129,5.585-20.4-3.7-4.828-9.193-7.895-14.34-10.944-5.991-3.55-20.225-14.9-8.863-21.8,3.313-2.013,7.55-1.355,11.3-.381s7.7,2.2,11.423,1.135c26.785-7.677-16.4-53.469,18.661-58.359,6.653-.928,13.359.79,19.866,2.458s13.245,3.313,19.876,2.24C1745.165,534.325,1753.75,527.687,1752.035,518.973Z" transform="translate(0 -3.493)" fill="#fb6e34"/>
      <path id="Path_2" data-name="Path 2" d="M2351.376,690.009c-8.8-6.3-6.508-20.157,3.974-22.861q.255-.066.511-.122c6.173-1.346,13.148,1.8,15.905,7.485s.715,13.353-4.689,16.626a14.281,14.281,0,0,1-13.828.035A16.585,16.585,0,0,1,2351.376,690.009Z" transform="translate(-654.79 -216.763)" fill="#fb6e34"/>
      <path id="Path_3" data-name="Path 3" d="M1651.017,797.918c-5.762-4.125-4.26-13.2,2.6-14.966q.166-.043.335-.08a9.587,9.587,0,0,1,10.412,4.9,8.7,8.7,0,0,1-3.069,10.884,9.349,9.349,0,0,1-9.052.023A10.873,10.873,0,0,1,1651.017,797.918Z" transform="translate(-142.123 -301.869)" fill="#fb6e34"/>
      <path id="Path_4" data-name="Path 4" d="M2297.031,1386.856c-5.762-4.125-4.26-13.2,2.6-14.966q.166-.042.334-.079a9.587,9.587,0,0,1,10.413,4.9,8.7,8.7,0,0,1-3.07,10.884,9.349,9.349,0,0,1-9.052.023A10.932,10.932,0,0,1,2297.031,1386.856Z" transform="translate(-616.279 -734.133)" fill="#fb6e34"/>
      <path id="Path_5" data-name="Path 5" d="M1952.51,406.917a2.5,2.5,0,0,1-4.1,1.64,29.676,29.676,0,0,1-9.821-14.59c-4.922-17.964,7.961-25.873,17.668-21.313,4.189,1.968,5.521,6.5,5.328,9.785C1960.879,394.378,1953.767,395.84,1952.51,406.917Z" transform="translate(-355.006)" fill="#fb6e34"/>
      <path id="Path_6" data-name="Path 6" d="M2046.078,541.147a4.588,4.588,0,0,1-6.859-4.248c.589-9.494,7.463-15.333,13.523-14.907,3.188.224,6.314,2.586,6.5,5.961a8.4,8.4,0,0,1-2.4,5.863,23.369,23.369,0,0,1-5.066,3.878C2049.879,538.884,2047.98,540.069,2046.078,541.147Z" transform="translate(-429.656 -110.522)" fill="#fb6e34"/>
      <path id="Path_7" data-name="Path 7" d="M1596.205,1047.8c-1.449-5.528-1.938-11.639.587-16.766s8.844-8.673,14.146-6.541c6.184,2.487,7.707,10.7,6.492,17.251-.7,3.8-2.085,7.606-4.788,10.366s-6.935,4.252-10.565,2.932S1596.542,1049.083,1596.205,1047.8Z" transform="translate(-103.625 -478.895)" fill="#fb6e34"/>
    </g>
  </g>
</svg>
