<svg xmlns="http://www.w3.org/2000/svg" width="8.139" height="7.853" viewBox="0 0 8.139 7.853">
  <g id="AdobeStock_557200365" transform="translate(-2.048 -3.168)">
    <g id="Group_348" data-name="Group 348" transform="translate(2.978 3.168)">
      <g id="Group_347" data-name="Group 347">
        <g id="Group_346" data-name="Group 346">
          <g id="Group_342" data-name="Group 342">
            <path id="Path_176" data-name="Path 176" d="M15.443,4.741a1.079,1.079,0,0,1-1.08,1.08,1.055,1.055,0,0,1-.684-.247,1.507,1.507,0,0,1-2.448-.048,1.063,1.063,0,0,1-.8.361,1.078,1.078,0,0,1,0-2.157,1.054,1.054,0,0,1,.7.263,1.5,1.5,0,0,1,2.61-.127,1.059,1.059,0,0,1,.623-.2A1.078,1.078,0,0,1,15.443,4.741Z" transform="translate(-9.352 -3.168)" fill="#5cbeff"/>
          </g>
          <g id="Group_343" data-name="Group 343" transform="translate(4.749 0.496)">
            <path id="Path_177" data-name="Path 177" d="M47.986,8.141a1.079,1.079,0,0,1-1.342,1.047,1.077,1.077,0,0,0,0-2.092,1.05,1.05,0,0,1,.259-.032A1.079,1.079,0,0,1,47.986,8.141Z" transform="translate(-46.644 -7.064)" fill="#079cff"/>
          </g>
          <g id="Group_344" data-name="Group 344" transform="translate(2.205 0.158)" opacity="0.28">
            <ellipse id="Ellipse_68" data-name="Ellipse 68" cx="0.372" cy="0.16" rx="0.372" ry="0.16" transform="matrix(0.896, -0.443, 0.443, 0.896, 0, 0.33)" fill="#fff"/>
          </g>
          <g id="Group_345" data-name="Group 345" transform="translate(0.347 0.639)" opacity="0.28">
            <ellipse id="Ellipse_69" data-name="Ellipse 69" cx="0.372" cy="0.16" rx="0.372" ry="0.16" transform="matrix(0.896, -0.443, 0.443, 0.896, 0, 0.33)" fill="#fff"/>
          </g>
        </g>
      </g>
    </g>
    <g id="Group_350" data-name="Group 350" transform="translate(3.166 5.893)">
      <g id="Group_349" data-name="Group 349" transform="translate(0 0)">
        <path id="Path_178" data-name="Path 178" d="M16.733,24.562l-.758,4.482a.778.778,0,0,1-.765.647H12.353a.776.776,0,0,1-.765-.647l-.758-4.482Z" transform="translate(-10.83 -24.562)" fill="#c175ff"/>
      </g>
    </g>
    <g id="Group_352" data-name="Group 352" transform="translate(3.166 5.893)">
      <g id="Group_351" data-name="Group 351" transform="translate(0 0)">
        <path id="Path_179" data-name="Path 179" d="M16.621,25.208l.109-.645h-5.9l.109.645Z" transform="translate(-10.827 -24.564)" fill="#b244f1"/>
      </g>
    </g>
    <g id="Group_354" data-name="Group 354" transform="translate(6.892 5.893)">
      <g id="Group_353" data-name="Group 353" transform="translate(0 0)">
        <path id="Path_180" data-name="Path 180" d="M42.266,24.562l-.758,4.482a.778.778,0,0,1-.765.647H40.09a.776.776,0,0,0,.765-.647l.758-4.482Z" transform="translate(-40.09 -24.562)" fill="#b244f1"/>
      </g>
    </g>
    <g id="Group_356" data-name="Group 356" transform="translate(2.048 5.397)">
      <g id="Group_355" data-name="Group 355" transform="translate(0)">
        <path id="Path_181" data-name="Path 181" d="M6.131,24.394H6.1a4.087,4.087,0,0,1-4.027-3.369l-.025-.142a.182.182,0,0,1,.179-.214H10a.182.182,0,0,1,.179.214l-.025.141A4.087,4.087,0,0,1,6.131,24.394ZM2.448,21.033a3.723,3.723,0,0,0,3.654,3h.029a3.723,3.723,0,0,0,3.654-3Z" transform="translate(-2.048 -20.669)" fill="#33527d"/>
      </g>
    </g>
    <g id="Group_357" data-name="Group 357" transform="translate(2.607 5.079)">
      <path id="Path_182" data-name="Path 182" d="M13.46,18.732a.561.561,0,0,1-.56.562H7a.561.561,0,1,1,0-1.122h5.9A.56.56,0,0,1,13.46,18.732Z" transform="translate(-6.44 -18.172)" fill="#c175ff"/>
    </g>
    <g id="Group_358" data-name="Group 358" transform="translate(8.119 5.079)">
      <path id="Path_183" data-name="Path 183" d="M51.228,18.732a.561.561,0,0,1-.56.562H49.72a.561.561,0,0,0,.56-.562.56.56,0,0,0-.56-.56h.948A.56.56,0,0,1,51.228,18.732Z" transform="translate(-49.72 -18.172)" fill="#b244f1"/>
    </g>
    <g id="Group_360" data-name="Group 360" transform="translate(6.678 4.743)">
      <g id="Group_359" data-name="Group 359" transform="translate(0 0)">
        <path id="Path_184" data-name="Path 184" d="M39.849,15.532v3.156a.36.36,0,0,1-.719,0v-.756a.361.361,0,0,1-.721,0v-2.4Z" transform="translate(-38.409 -15.532)" fill="#5cbeff"/>
      </g>
    </g>
    <g id="Group_362" data-name="Group 362" transform="translate(4.014 4.673)">
      <g id="Group_361" data-name="Group 361" transform="translate(0 0)">
        <path id="Path_185" data-name="Path 185" d="M18.933,14.988v1.628a.36.36,0,0,1-.719,0V15.86a.361.361,0,0,1-.721,0v-.871Z" transform="translate(-17.492 -14.988)" fill="#5cbeff"/>
      </g>
    </g>
  </g>
</svg>
