<svg xmlns="http://www.w3.org/2000/svg" width="144.734" height="79.144" viewBox="0 0 144.734 79.144">
  <g id="Group_3" data-name="Group 3" transform="translate(-108.981 -118.521)">
    <g id="Group_1" data-name="Group 1" transform="translate(108.981 118.521)">
      <path id="Path_1" data-name="Path 1" d="M478.609,198.606l27.989-16.16a72.726,72.726,0,0,0-25.6-25.6l-16.16,27.989A40.261,40.261,0,0,1,478.609,198.606Z" transform="translate(-371.875 -146.834)" fill="#e55400"/>
      <path id="Path_2" data-name="Path 2" d="M265.79,155.869a39.857,39.857,0,0,1,18.811-5.033V118.521a72.023,72.023,0,0,0-34.972,9.357Z" transform="translate(-212.887 -118.521)" fill="#f6e842"/>
      <path id="Path_3" data-name="Path 3" d="M388.5,150.836a39.857,39.857,0,0,1,18.811,5.033l16.161-27.991a72.023,72.023,0,0,0-34.972-9.357Z" transform="translate(-315.48 -118.521)" fill="#ffb702"/>
      <path id="Path_4" data-name="Path 4" d="M175.3,198.606a40.261,40.261,0,0,1,13.771-13.771l-16.16-27.989a72.731,72.731,0,0,0-25.6,25.6Z" transform="translate(-137.294 -146.834)" fill="#91ba1f"/>
      <path id="Path_5" data-name="Path 5" d="M141.3,294.141a39.861,39.861,0,0,1,5.033-18.811l-27.991-16.161a72.023,72.023,0,0,0-9.357,34.972Z" transform="translate(-108.981 -222.427)" fill="#67ba25"/>
      <path id="Path_6" data-name="Path 6" d="M520.053,275.33a39.861,39.861,0,0,1,5.033,18.811H557.4a72.025,72.025,0,0,0-9.357-34.972Z" transform="translate(-412.666 -222.427)" fill="#cc271d"/>
    </g>
    <g id="Group_2" data-name="Group 2" transform="translate(174.513 181.866)">
      <path id="Path_7" data-name="Path 7" d="M373.309,370.882l25.917-9.26a.319.319,0,0,0-.165-.614l-27.075,4.939a6.764,6.764,0,1,0,1.322,4.935Z" transform="translate(-359.833 -361.002)" fill="#2b2d2c"/>
      <circle id="Ellipse_1" data-name="Ellipse 1" cx="3.629" cy="3.629" r="3.629" transform="translate(2.645 12.093) rotate(-81.595)" fill="#fff"/>
    </g>
  </g>
</svg>
