<svg xmlns="http://www.w3.org/2000/svg" width="138.63" height="92.422" viewBox="0 0 138.63 92.422">
  <g id="Group_2236" data-name="Group 2236" transform="translate(987.812 -1778.767)">
    <g id="Group_2072" data-name="Group 2072" transform="translate(-2007 -289.682)">
      <rect id="Rectangle_544" data-name="Rectangle 544" width="138.629" height="92.422" transform="translate(1019.188 2068.449)" fill="#ededed"/>
      <path id="Path_8185" data-name="Path 8185" d="M1157.818,2106.912v15.5h-62.529v38.461h-13.572V2122.41h-62.529v-15.5h62.529v-38.462h13.572v38.462Z" fill="#ce0100" fill-rule="evenodd"/>
      <path id="Path_8186" data-name="Path 8186" d="M1031.971,2068.45h46.216v30.466Zm66.844,0h46.219l-46.219,30.466Zm59,9.466-37.6,24.784h37.6Zm-37.6,48.7h37.6v24.785Zm24.814,34.251-46.219-30.465v30.465Zm-125.846-34.251h37.6l-37.6,24.785Zm59,3.786-46.216,30.465h46.216Zm-21.4-27.706-37.6-24.784V2102.7Z" fill="#1e359b" fill-rule="evenodd"/>
      <g id="Group_2071" data-name="Group 2071">
        <path id="Path_8187" data-name="Path 8187" d="M1061.8,2102.7l-42.612-28.09V2068.9l51.282,33.8Z" fill="#ce0100" fill-rule="evenodd"/>
        <path id="Path_8188" data-name="Path 8188" d="M1078.187,2127.332l-50.878,33.539h-8.121v-.36l51.412-33.891h7.587Z" fill="#ce0100" fill-rule="evenodd"/>
        <path id="Path_8189" data-name="Path 8189" d="M1157.818,2069.118l-50.946,33.583h-8.057v-.4l51.345-33.846h7.658Z" fill="#ce0100" fill-rule="evenodd"/>
        <path id="Path_8190" data-name="Path 8190" d="M1157.818,2160.184,1106.9,2126.62h8.669l42.247,27.851Z" fill="#ce0100" fill-rule="evenodd"/>
      </g>
    </g>
  </g>
</svg>
