<svg xmlns="http://www.w3.org/2000/svg" width="138.636" height="92.422" viewBox="0 0 138.636 92.422">
  <g id="Group_2232" data-name="Group 2232" transform="translate(1236.74 -1387.057)">
    <g id="Group_2106" data-name="Group 2106" transform="translate(-2443.522 -681.392)">
      <rect id="Rectangle_552" data-name="Rectangle 552" width="138.635" height="92.422" transform="translate(1206.783 2068.449)" fill="#ededed"/>
      <path id="Path_8284" data-name="Path 8284" d="M1206.783,2153.761h138.636v7.11H1206.783Zm0-85.311h138.636v7.107H1206.783Zm0,14.218h138.636v7.108H1206.783Zm0,14.219h138.636V2104H1206.783Zm0,14.218h138.636v7.109H1206.783Zm0,14.219h138.636v7.111H1206.783Zm0,14.219h138.636v7.109H1206.783Z" fill="#cc0b1b"/>
      <rect id="Rectangle_553" data-name="Rectangle 553" width="70.243" height="49.764" transform="translate(1206.783 2068.449)" fill="#2c4db5"/>
      <path id="Path_8285" data-name="Path 8285" d="M1271.656,2082.471l-.638-1.968-.639,1.968h-2.067l1.671,1.215-.638,1.967,1.673-1.215,1.671,1.215-.638-1.967,1.674-1.215Zm-57.829-8.766,1.671-1.217h-2.067l-.639-1.966-.641,1.966h-2.066l1.673,1.217-.64,1.966,1.674-1.216,1.672,1.216Zm11.644,0,1.673-1.217h-2.068l-.639-1.966-.639,1.966h-2.069l1.674,1.217-.638,1.966,1.672-1.215,1.674,1.215Zm11.646,0,1.672-1.216h-2.068l-.639-1.966-.64,1.966h-2.069l1.676,1.217-.64,1.966,1.673-1.215,1.674,1.215Zm11.645,0,1.673-1.217h-2.069l-.639-1.966-.639,1.966h-2.069l1.675,1.217-.639,1.966,1.672-1.215,1.674,1.215Zm-28.8,34.7,1.672-1.217h-2.068l-.64-1.966-.64,1.966h-2.067l1.673,1.217-.639,1.967,1.674-1.215,1.671,1.215Zm-.233-9.7,1.672-1.216h-2.067l-.64-1.968-.637,1.968h-2.069l1.673,1.216-.639,1.968,1.672-1.217,1.673,1.217Zm.062-9.646,1.671-1.214h-2.067l-.639-1.968-.64,1.968h-2.068l1.673,1.214-.639,1.968,1.674-1.216,1.673,1.216Zm40.617-15.356,1.672-1.217h-2.068l-.64-1.966-.638,1.966h-2.068l1.674,1.217-.64,1.966,1.674-1.215,1.672,1.215Zm11.644,0,1.674-1.217h-2.069l-.638-1.966-.639,1.966h-2.067l1.671,1.217-.638,1.966,1.673-1.215,1.671,1.215Zm-40.616,15.356,1.671-1.214h-2.067l-.639-1.968-.64,1.968h-2.065l1.671,1.214-.639,1.968,1.673-1.216,1.674,1.216Zm-.062,9.645,1.674-1.215h-2.069l-.641-1.968-.638,1.968h-2.066l1.674,1.216-.641,1.968,1.674-1.217,1.672,1.217Zm.232,9.7,1.673-1.217h-2.067l-.64-1.966-.64,1.966h-2.067l1.674,1.217-.64,1.967,1.673-1.215,1.674,1.215Zm11.646,0,1.672-1.217h-2.067l-.64-1.966-.639,1.966h-2.069l1.673,1.215-.637,1.969,1.671-1.215,1.676,1.215Zm-.232-9.7,1.673-1.215h-2.069l-.639-1.968-.638,1.968h-2.069l1.674,1.216-.638,1.968,1.671-1.217,1.675,1.217Zm.059-9.645,1.673-1.214h-2.066l-.641-1.968-.639,1.968h-2.066l1.672,1.216-.64,1.966,1.674-1.217,1.674,1.217Zm-23.429-10.366,1.67-1.216h-2.066l-.639-1.965-.638,1.965h-2.07l1.674,1.216-.639,1.966,1.673-1.214,1.672,1.214Zm11.644,0,1.673-1.216H1230.9l-.638-1.965-.64,1.965h-2.069l1.674,1.216-.639,1.966,1.674-1.216,1.673,1.216Zm23.432,10.366,1.672-1.214h-2.068l-.638-1.968-.64,1.968h-2.068l1.673,1.214-.639,1.968,1.672-1.216,1.676,1.216Zm-.061,9.645,1.673-1.215h-2.068l-.638-1.968-.641,1.968h-2.067l1.672,1.214-.638,1.97,1.673-1.216,1.673,1.216Zm.231,9.7,1.673-1.217H1254.5l-.639-1.966-.64,1.966h-2.068l1.674,1.215-.64,1.969,1.673-1.215,1.674,1.215Zm11.646,0,1.672-1.217h-2.067l-.64-1.966-.638,1.966H1262.8l1.672,1.217-.638,1.967,1.672-1.215,1.675,1.215Zm-.232-9.7,1.673-1.216h-2.067l-.638-1.968-.641,1.968h-2.068l1.673,1.215-.638,1.969,1.672-1.217,1.672,1.217Zm.061-9.646,1.671-1.214h-2.067l-.639-1.968-.64,1.968h-2.067l1.673,1.214-.64,1.968,1.674-1.216,1.673,1.216Zm-23.431-10.366,1.673-1.216h-2.068l-.638-1.965-.64,1.965H1239.2l1.673,1.216-.637,1.966,1.671-1.214,1.674,1.214Zm11.645,0,1.673-1.216h-2.067l-.64-1.965-.64,1.965h-2.066l1.671,1.216-.638,1.966,1.673-1.214,1.674,1.214Zm11.646,0,1.672-1.216h-2.068l-.64-1.965-.638,1.965h-2.068l1.672,1.216-.64,1.966,1.676-1.216,1.674,1.216Zm-52.094,34.7,1.674-1.213h-2.068l-.639-1.968-.639,1.968H1210.4l1.673,1.214-.64,1.966,1.673-1.213,1.673,1.213Zm-.23-9.7,1.672-1.214h-2.066l-.64-1.968-.64,1.968h-2.068l1.674,1.216-.639,1.965,1.673-1.217,1.673,1.217Zm.059-9.643,1.675-1.216h-2.068l-.64-1.969-.64,1.969h-2.068l1.674,1.215-.638,1.966,1.672-1.215,1.673,1.215Zm11.647,0,1.673-1.214h-2.068l-.638-1.969-.64,1.969h-2.069l1.673,1.214-.639,1.967,1.675-1.214,1.671,1.214Zm-.061,9.645,1.673-1.214h-2.068l-.64-1.968-.638,1.968h-2.068l1.672,1.214-.638,1.967,1.672-1.217,1.676,1.217Zm.231,9.7,1.673-1.213h-2.068l-.639-1.968-.639,1.968h-2.068l1.673,1.213-.638,1.967,1.672-1.213,1.674,1.213Zm11.644,0,1.676-1.213h-2.069l-.64-1.968-.639,1.968h-2.068l1.674,1.213-.64,1.967,1.673-1.213,1.673,1.213Zm-.23-9.7,1.675-1.214h-2.07l-.639-1.968-.64,1.968h-2.067l1.673,1.216-.639,1.965,1.673-1.217,1.674,1.217Zm.06-9.644,1.674-1.215h-2.068l-.641-1.969-.638,1.969h-2.069l1.673,1.215-.637,1.966,1.673-1.215,1.672,1.215Zm-23.429-10.367,1.671-1.215h-2.066l-.64-1.968-.641,1.968h-2.066l1.673,1.216-.64,1.966,1.674-1.217,1.672,1.217Zm11.644,0,1.673-1.215h-2.068l-.639-1.968-.64,1.968h-2.068l1.674,1.215-.638,1.967,1.672-1.215,1.674,1.215Zm23.431,10.367,1.673-1.215h-2.067l-.639-1.969-.64,1.969h-2.069l1.674,1.214-.638,1.967,1.673-1.214,1.671,1.214Zm-.06,9.644,1.673-1.214h-2.069l-.64-1.968-.638,1.968H1245.1l1.674,1.214-.641,1.967,1.676-1.217,1.672,1.217Zm.23,9.7,1.673-1.213h-2.068l-.638-1.968-.639,1.968h-2.069l1.673,1.213-.638,1.967,1.672-1.213,1.674,1.213Zm11.646,0,1.672-1.213h-2.067l-.64-1.968-.64,1.968h-2.066l1.674,1.213-.64,1.967,1.672-1.214,1.673,1.214Zm11.645,0,1.673-1.213h-2.069l-.637-1.968-.64,1.968h-2.067l1.671,1.213-.637,1.967,1.673-1.213,1.673,1.213Zm-11.877-9.693,1.672-1.216h-2.066l-.64-1.968-.64,1.968h-2.066l1.673,1.214-.637,1.967,1.671-1.217,1.672,1.217Zm11.645,0,1.674-1.214h-2.068l-.639-1.968-.64,1.968h-2.067l1.672,1.216-.637,1.965,1.672-1.217,1.672,1.217Zm-11.585-9.644,1.673-1.215h-2.066l-.64-1.969-.64,1.969H1256.8l1.676,1.215-.64,1.966,1.673-1.215,1.673,1.215Zm11.646,0,1.674-1.214H1271.8l-.638-1.969-.641,1.969h-2.068l1.673,1.216-.638,1.965,1.673-1.215,1.673,1.215Zm-35.075-10.366,1.672-1.215h-2.067l-.64-1.968-.64,1.968h-2.069l1.676,1.216-.64,1.966,1.673-1.215,1.674,1.215Zm11.645,0,1.673-1.215h-2.069l-.639-1.968-.64,1.968h-2.068l1.675,1.216-.639,1.966,1.672-1.215,1.674,1.215Zm11.645,0,1.672-1.215h-2.067l-.641-1.968-.638,1.968h-2.068l1.674,1.216-.64,1.966,1.674-1.215,1.672,1.215Z" fill="#ededed"/>
    </g>
  </g>
</svg>
