<svg xmlns="http://www.w3.org/2000/svg" width="44.752" height="36.921" viewBox="0 0 44.752 36.921">
  <path id="Path_2" data-name="Path 2" d="M213.455,401.74c.693,1.577,1.287,3.192,1.863,4.816,1.181-1.477,2.376-2.952,3.624-4.385,5.628-6.458,17.2-18.315,26.436-17.811,2.754.151,2.674,1,.375,2.1-9.944,4.747-18.243,17.6-23.979,26.747-1.443,2.3-3.5,6.315-5.852,7.569a5.051,5.051,0,0,1-4.908-.326c-2.66-1.735-5.842-10.327-7.692-13.586a5.677,5.677,0,0,1,10.132-5.122Z" transform="translate(-202.711 -384.344)" fill="#8cc318" fill-rule="evenodd"/>
</svg>
